<mxfile host="app.diagrams.net" modified="2021-07-06T01:12:31.871Z" agent="5.0 (Macintosh; Intel Mac OS X 10_15_7) AppleWebKit/537.36 (KHTML, like Gecko) Chrome/91.0.4472.114 Safari/537.36" etag="8m5xTGptu0psScpYovb0" version="14.8.4" type="github">
  <diagram id="C5RBs43oDa-KdzZeNtuy" name="Page-1">
    <mxGraphModel dx="1351" dy="841" grid="1" gridSize="10" guides="1" tooltips="1" connect="1" arrows="1" fold="1" page="1" pageScale="1" pageWidth="1169" pageHeight="827" math="0" shadow="0">
      <root>
        <mxCell id="WIyWlLk6GJQsqaUBKTNV-0" />
        <mxCell id="WIyWlLk6GJQsqaUBKTNV-1" parent="WIyWlLk6GJQsqaUBKTNV-0" />
        <mxCell id="ff2iFZDRP0f89sw57kGQ-0" value="管理者（Admins）" style="shape=table;startSize=30;container=1;collapsible=1;childLayout=tableLayout;fixedRows=1;rowLines=0;fontStyle=1;align=center;resizeLast=1;" vertex="1" parent="WIyWlLk6GJQsqaUBKTNV-1">
          <mxGeometry x="40" y="480" width="200" height="200" as="geometry" />
        </mxCell>
        <mxCell id="ff2iFZDRP0f89sw57kGQ-1" value="" style="shape=partialRectangle;collapsible=0;dropTarget=0;pointerEvents=0;fillColor=none;top=0;left=0;bottom=1;right=0;points=[[0,0.5],[1,0.5]];portConstraint=eastwest;" vertex="1" parent="ff2iFZDRP0f89sw57kGQ-0">
          <mxGeometry y="30" width="200" height="30" as="geometry" />
        </mxCell>
        <mxCell id="ff2iFZDRP0f89sw57kGQ-2" value="PK" style="shape=partialRectangle;connectable=0;fillColor=none;top=0;left=0;bottom=0;right=0;fontStyle=1;overflow=hidden;" vertex="1" parent="ff2iFZDRP0f89sw57kGQ-1">
          <mxGeometry width="30" height="30" as="geometry" />
        </mxCell>
        <mxCell id="ff2iFZDRP0f89sw57kGQ-3" value="管理者id" style="shape=partialRectangle;connectable=0;fillColor=none;top=0;left=0;bottom=0;right=0;align=left;spacingLeft=6;fontStyle=5;overflow=hidden;" vertex="1" parent="ff2iFZDRP0f89sw57kGQ-1">
          <mxGeometry x="30" width="170" height="30" as="geometry" />
        </mxCell>
        <mxCell id="ff2iFZDRP0f89sw57kGQ-4" value="" style="shape=partialRectangle;collapsible=0;dropTarget=0;pointerEvents=0;fillColor=none;top=0;left=0;bottom=0;right=0;points=[[0,0.5],[1,0.5]];portConstraint=eastwest;" vertex="1" parent="ff2iFZDRP0f89sw57kGQ-0">
          <mxGeometry y="60" width="200" height="30" as="geometry" />
        </mxCell>
        <mxCell id="ff2iFZDRP0f89sw57kGQ-5" value="" style="shape=partialRectangle;connectable=0;fillColor=none;top=0;left=0;bottom=0;right=0;editable=1;overflow=hidden;" vertex="1" parent="ff2iFZDRP0f89sw57kGQ-4">
          <mxGeometry width="30" height="30" as="geometry" />
        </mxCell>
        <mxCell id="ff2iFZDRP0f89sw57kGQ-6" value="メールアドレス" style="shape=partialRectangle;connectable=0;fillColor=none;top=0;left=0;bottom=0;right=0;align=left;spacingLeft=6;overflow=hidden;" vertex="1" parent="ff2iFZDRP0f89sw57kGQ-4">
          <mxGeometry x="30" width="170" height="30" as="geometry" />
        </mxCell>
        <mxCell id="ff2iFZDRP0f89sw57kGQ-7" value="" style="shape=partialRectangle;collapsible=0;dropTarget=0;pointerEvents=0;fillColor=none;top=0;left=0;bottom=0;right=0;points=[[0,0.5],[1,0.5]];portConstraint=eastwest;" vertex="1" parent="ff2iFZDRP0f89sw57kGQ-0">
          <mxGeometry y="90" width="200" height="20" as="geometry" />
        </mxCell>
        <mxCell id="ff2iFZDRP0f89sw57kGQ-8" value="" style="shape=partialRectangle;connectable=0;fillColor=none;top=0;left=0;bottom=0;right=0;editable=1;overflow=hidden;" vertex="1" parent="ff2iFZDRP0f89sw57kGQ-7">
          <mxGeometry width="30" height="20" as="geometry" />
        </mxCell>
        <mxCell id="ff2iFZDRP0f89sw57kGQ-9" value="パスワード" style="shape=partialRectangle;connectable=0;fillColor=none;top=0;left=0;bottom=0;right=0;align=left;spacingLeft=6;overflow=hidden;" vertex="1" parent="ff2iFZDRP0f89sw57kGQ-7">
          <mxGeometry x="30" width="170" height="20" as="geometry" />
        </mxCell>
        <mxCell id="ff2iFZDRP0f89sw57kGQ-10" value="" style="shape=partialRectangle;collapsible=0;dropTarget=0;pointerEvents=0;fillColor=none;top=0;left=0;bottom=0;right=0;points=[[0,0.5],[1,0.5]];portConstraint=eastwest;" vertex="1" parent="ff2iFZDRP0f89sw57kGQ-0">
          <mxGeometry y="110" width="200" height="30" as="geometry" />
        </mxCell>
        <mxCell id="ff2iFZDRP0f89sw57kGQ-11" value="" style="shape=partialRectangle;connectable=0;fillColor=none;top=0;left=0;bottom=0;right=0;editable=1;overflow=hidden;" vertex="1" parent="ff2iFZDRP0f89sw57kGQ-10">
          <mxGeometry width="30" height="30" as="geometry" />
        </mxCell>
        <mxCell id="ff2iFZDRP0f89sw57kGQ-12" value="作成日時" style="shape=partialRectangle;connectable=0;fillColor=none;top=0;left=0;bottom=0;right=0;align=left;spacingLeft=6;overflow=hidden;" vertex="1" parent="ff2iFZDRP0f89sw57kGQ-10">
          <mxGeometry x="30" width="170" height="30" as="geometry" />
        </mxCell>
        <mxCell id="ff2iFZDRP0f89sw57kGQ-18" value="" style="shape=partialRectangle;collapsible=0;dropTarget=0;pointerEvents=0;fillColor=none;top=0;left=0;bottom=0;right=0;points=[[0,0.5],[1,0.5]];portConstraint=eastwest;" vertex="1" parent="ff2iFZDRP0f89sw57kGQ-0">
          <mxGeometry y="140" width="200" height="30" as="geometry" />
        </mxCell>
        <mxCell id="ff2iFZDRP0f89sw57kGQ-19" value="" style="shape=partialRectangle;connectable=0;fillColor=none;top=0;left=0;bottom=0;right=0;editable=1;overflow=hidden;" vertex="1" parent="ff2iFZDRP0f89sw57kGQ-18">
          <mxGeometry width="30" height="30" as="geometry" />
        </mxCell>
        <mxCell id="ff2iFZDRP0f89sw57kGQ-20" value="更新日時" style="shape=partialRectangle;connectable=0;fillColor=none;top=0;left=0;bottom=0;right=0;align=left;spacingLeft=6;overflow=hidden;" vertex="1" parent="ff2iFZDRP0f89sw57kGQ-18">
          <mxGeometry x="30" width="170" height="30" as="geometry" />
        </mxCell>
        <mxCell id="ff2iFZDRP0f89sw57kGQ-21" value="会員（Customers）" style="shape=table;startSize=30;container=1;collapsible=1;childLayout=tableLayout;fixedRows=1;rowLines=0;fontStyle=1;align=center;resizeLast=1;" vertex="1" parent="WIyWlLk6GJQsqaUBKTNV-1">
          <mxGeometry x="40" y="40" width="200" height="320" as="geometry" />
        </mxCell>
        <mxCell id="ff2iFZDRP0f89sw57kGQ-22" value="" style="shape=partialRectangle;collapsible=0;dropTarget=0;pointerEvents=0;fillColor=none;top=0;left=0;bottom=1;right=0;points=[[0,0.5],[1,0.5]];portConstraint=eastwest;" vertex="1" parent="ff2iFZDRP0f89sw57kGQ-21">
          <mxGeometry y="30" width="200" height="30" as="geometry" />
        </mxCell>
        <mxCell id="ff2iFZDRP0f89sw57kGQ-23" value="PK" style="shape=partialRectangle;connectable=0;fillColor=none;top=0;left=0;bottom=0;right=0;fontStyle=1;overflow=hidden;" vertex="1" parent="ff2iFZDRP0f89sw57kGQ-22">
          <mxGeometry width="30" height="30" as="geometry" />
        </mxCell>
        <mxCell id="ff2iFZDRP0f89sw57kGQ-24" value="会員id" style="shape=partialRectangle;connectable=0;fillColor=none;top=0;left=0;bottom=0;right=0;align=left;spacingLeft=6;fontStyle=5;overflow=hidden;" vertex="1" parent="ff2iFZDRP0f89sw57kGQ-22">
          <mxGeometry x="30" width="170" height="30" as="geometry" />
        </mxCell>
        <mxCell id="ff2iFZDRP0f89sw57kGQ-25" value="" style="shape=partialRectangle;collapsible=0;dropTarget=0;pointerEvents=0;fillColor=none;top=0;left=0;bottom=0;right=0;points=[[0,0.5],[1,0.5]];portConstraint=eastwest;" vertex="1" parent="ff2iFZDRP0f89sw57kGQ-21">
          <mxGeometry y="60" width="200" height="30" as="geometry" />
        </mxCell>
        <mxCell id="ff2iFZDRP0f89sw57kGQ-26" value="" style="shape=partialRectangle;connectable=0;fillColor=none;top=0;left=0;bottom=0;right=0;editable=1;overflow=hidden;" vertex="1" parent="ff2iFZDRP0f89sw57kGQ-25">
          <mxGeometry width="30" height="30" as="geometry" />
        </mxCell>
        <mxCell id="ff2iFZDRP0f89sw57kGQ-27" value="アカウント名" style="shape=partialRectangle;connectable=0;fillColor=none;top=0;left=0;bottom=0;right=0;align=left;spacingLeft=6;overflow=hidden;" vertex="1" parent="ff2iFZDRP0f89sw57kGQ-25">
          <mxGeometry x="30" width="170" height="30" as="geometry" />
        </mxCell>
        <mxCell id="ff2iFZDRP0f89sw57kGQ-28" value="" style="shape=partialRectangle;collapsible=0;dropTarget=0;pointerEvents=0;fillColor=none;top=0;left=0;bottom=0;right=0;points=[[0,0.5],[1,0.5]];portConstraint=eastwest;" vertex="1" parent="ff2iFZDRP0f89sw57kGQ-21">
          <mxGeometry y="90" width="200" height="30" as="geometry" />
        </mxCell>
        <mxCell id="ff2iFZDRP0f89sw57kGQ-29" value="" style="shape=partialRectangle;connectable=0;fillColor=none;top=0;left=0;bottom=0;right=0;editable=1;overflow=hidden;" vertex="1" parent="ff2iFZDRP0f89sw57kGQ-28">
          <mxGeometry width="30" height="30" as="geometry" />
        </mxCell>
        <mxCell id="ff2iFZDRP0f89sw57kGQ-30" value="メールアドレス" style="shape=partialRectangle;connectable=0;fillColor=none;top=0;left=0;bottom=0;right=0;align=left;spacingLeft=6;overflow=hidden;" vertex="1" parent="ff2iFZDRP0f89sw57kGQ-28">
          <mxGeometry x="30" width="170" height="30" as="geometry" />
        </mxCell>
        <mxCell id="ff2iFZDRP0f89sw57kGQ-31" value="" style="shape=partialRectangle;collapsible=0;dropTarget=0;pointerEvents=0;fillColor=none;top=0;left=0;bottom=0;right=0;points=[[0,0.5],[1,0.5]];portConstraint=eastwest;" vertex="1" parent="ff2iFZDRP0f89sw57kGQ-21">
          <mxGeometry y="120" width="200" height="20" as="geometry" />
        </mxCell>
        <mxCell id="ff2iFZDRP0f89sw57kGQ-32" value="" style="shape=partialRectangle;connectable=0;fillColor=none;top=0;left=0;bottom=0;right=0;editable=1;overflow=hidden;" vertex="1" parent="ff2iFZDRP0f89sw57kGQ-31">
          <mxGeometry width="30" height="20" as="geometry" />
        </mxCell>
        <mxCell id="ff2iFZDRP0f89sw57kGQ-33" value="パスワード" style="shape=partialRectangle;connectable=0;fillColor=none;top=0;left=0;bottom=0;right=0;align=left;spacingLeft=6;overflow=hidden;" vertex="1" parent="ff2iFZDRP0f89sw57kGQ-31">
          <mxGeometry x="30" width="170" height="20" as="geometry" />
        </mxCell>
        <mxCell id="ff2iFZDRP0f89sw57kGQ-35" value="" style="shape=partialRectangle;collapsible=0;dropTarget=0;pointerEvents=0;fillColor=none;top=0;left=0;bottom=0;right=0;points=[[0,0.5],[1,0.5]];portConstraint=eastwest;" vertex="1" parent="ff2iFZDRP0f89sw57kGQ-21">
          <mxGeometry y="140" width="200" height="30" as="geometry" />
        </mxCell>
        <mxCell id="ff2iFZDRP0f89sw57kGQ-36" value="" style="shape=partialRectangle;connectable=0;fillColor=none;top=0;left=0;bottom=0;right=0;editable=1;overflow=hidden;" vertex="1" parent="ff2iFZDRP0f89sw57kGQ-35">
          <mxGeometry width="30" height="30" as="geometry" />
        </mxCell>
        <mxCell id="ff2iFZDRP0f89sw57kGQ-37" value="退会フラグ" style="shape=partialRectangle;connectable=0;fillColor=none;top=0;left=0;bottom=0;right=0;align=left;spacingLeft=6;overflow=hidden;" vertex="1" parent="ff2iFZDRP0f89sw57kGQ-35">
          <mxGeometry x="30" width="170" height="30" as="geometry" />
        </mxCell>
        <mxCell id="ff2iFZDRP0f89sw57kGQ-39" value="" style="shape=partialRectangle;collapsible=0;dropTarget=0;pointerEvents=0;fillColor=none;top=0;left=0;bottom=0;right=0;points=[[0,0.5],[1,0.5]];portConstraint=eastwest;" vertex="1" parent="ff2iFZDRP0f89sw57kGQ-21">
          <mxGeometry y="170" width="200" height="20" as="geometry" />
        </mxCell>
        <mxCell id="ff2iFZDRP0f89sw57kGQ-40" value="" style="shape=partialRectangle;connectable=0;fillColor=none;top=0;left=0;bottom=0;right=0;editable=1;overflow=hidden;" vertex="1" parent="ff2iFZDRP0f89sw57kGQ-39">
          <mxGeometry width="30" height="20" as="geometry" />
        </mxCell>
        <mxCell id="ff2iFZDRP0f89sw57kGQ-41" value="紹介文" style="shape=partialRectangle;connectable=0;fillColor=none;top=0;left=0;bottom=0;right=0;align=left;spacingLeft=6;overflow=hidden;" vertex="1" parent="ff2iFZDRP0f89sw57kGQ-39">
          <mxGeometry x="30" width="170" height="20" as="geometry" />
        </mxCell>
        <mxCell id="ff2iFZDRP0f89sw57kGQ-43" value="" style="shape=partialRectangle;collapsible=0;dropTarget=0;pointerEvents=0;fillColor=none;top=0;left=0;bottom=0;right=0;points=[[0,0.5],[1,0.5]];portConstraint=eastwest;" vertex="1" parent="ff2iFZDRP0f89sw57kGQ-21">
          <mxGeometry y="190" width="200" height="30" as="geometry" />
        </mxCell>
        <mxCell id="ff2iFZDRP0f89sw57kGQ-44" value="" style="shape=partialRectangle;connectable=0;fillColor=none;top=0;left=0;bottom=0;right=0;editable=1;overflow=hidden;" vertex="1" parent="ff2iFZDRP0f89sw57kGQ-43">
          <mxGeometry width="30" height="30" as="geometry" />
        </mxCell>
        <mxCell id="ff2iFZDRP0f89sw57kGQ-45" value="プロフィール画像" style="shape=partialRectangle;connectable=0;fillColor=none;top=0;left=0;bottom=0;right=0;align=left;spacingLeft=6;overflow=hidden;" vertex="1" parent="ff2iFZDRP0f89sw57kGQ-43">
          <mxGeometry x="30" width="170" height="30" as="geometry" />
        </mxCell>
        <mxCell id="ff2iFZDRP0f89sw57kGQ-47" value="" style="shape=partialRectangle;collapsible=0;dropTarget=0;pointerEvents=0;fillColor=none;top=0;left=0;bottom=0;right=0;points=[[0,0.5],[1,0.5]];portConstraint=eastwest;" vertex="1" parent="ff2iFZDRP0f89sw57kGQ-21">
          <mxGeometry y="220" width="200" height="30" as="geometry" />
        </mxCell>
        <mxCell id="ff2iFZDRP0f89sw57kGQ-48" value="" style="shape=partialRectangle;connectable=0;fillColor=none;top=0;left=0;bottom=0;right=0;editable=1;overflow=hidden;" vertex="1" parent="ff2iFZDRP0f89sw57kGQ-47">
          <mxGeometry width="30" height="30" as="geometry" />
        </mxCell>
        <mxCell id="ff2iFZDRP0f89sw57kGQ-49" value="作成日時" style="shape=partialRectangle;connectable=0;fillColor=none;top=0;left=0;bottom=0;right=0;align=left;spacingLeft=6;overflow=hidden;" vertex="1" parent="ff2iFZDRP0f89sw57kGQ-47">
          <mxGeometry x="30" width="170" height="30" as="geometry" />
        </mxCell>
        <mxCell id="ff2iFZDRP0f89sw57kGQ-51" value="" style="shape=partialRectangle;collapsible=0;dropTarget=0;pointerEvents=0;fillColor=none;top=0;left=0;bottom=0;right=0;points=[[0,0.5],[1,0.5]];portConstraint=eastwest;" vertex="1" parent="ff2iFZDRP0f89sw57kGQ-21">
          <mxGeometry y="250" width="200" height="30" as="geometry" />
        </mxCell>
        <mxCell id="ff2iFZDRP0f89sw57kGQ-52" value="" style="shape=partialRectangle;connectable=0;fillColor=none;top=0;left=0;bottom=0;right=0;editable=1;overflow=hidden;" vertex="1" parent="ff2iFZDRP0f89sw57kGQ-51">
          <mxGeometry width="30" height="30" as="geometry" />
        </mxCell>
        <mxCell id="ff2iFZDRP0f89sw57kGQ-53" value="更新日時" style="shape=partialRectangle;connectable=0;fillColor=none;top=0;left=0;bottom=0;right=0;align=left;spacingLeft=6;overflow=hidden;" vertex="1" parent="ff2iFZDRP0f89sw57kGQ-51">
          <mxGeometry x="30" width="170" height="30" as="geometry" />
        </mxCell>
        <mxCell id="ff2iFZDRP0f89sw57kGQ-54" value="動画（Movies)" style="shape=table;startSize=30;container=1;collapsible=1;childLayout=tableLayout;fixedRows=1;rowLines=0;fontStyle=1;align=center;resizeLast=1;" vertex="1" parent="WIyWlLk6GJQsqaUBKTNV-1">
          <mxGeometry x="400" y="40" width="200" height="310" as="geometry" />
        </mxCell>
        <mxCell id="ff2iFZDRP0f89sw57kGQ-55" value="" style="shape=partialRectangle;collapsible=0;dropTarget=0;pointerEvents=0;fillColor=none;top=0;left=0;bottom=1;right=0;points=[[0,0.5],[1,0.5]];portConstraint=eastwest;" vertex="1" parent="ff2iFZDRP0f89sw57kGQ-54">
          <mxGeometry y="30" width="200" height="30" as="geometry" />
        </mxCell>
        <mxCell id="ff2iFZDRP0f89sw57kGQ-56" value="PK" style="shape=partialRectangle;connectable=0;fillColor=none;top=0;left=0;bottom=0;right=0;fontStyle=1;overflow=hidden;" vertex="1" parent="ff2iFZDRP0f89sw57kGQ-55">
          <mxGeometry width="30.000000000000227" height="30" as="geometry" />
        </mxCell>
        <mxCell id="ff2iFZDRP0f89sw57kGQ-57" value="動画id" style="shape=partialRectangle;connectable=0;fillColor=none;top=0;left=0;bottom=0;right=0;align=left;spacingLeft=6;fontStyle=5;overflow=hidden;" vertex="1" parent="ff2iFZDRP0f89sw57kGQ-55">
          <mxGeometry x="30.000000000000227" width="169.99999999999977" height="30" as="geometry" />
        </mxCell>
        <mxCell id="ff2iFZDRP0f89sw57kGQ-80" value="" style="shape=partialRectangle;collapsible=0;dropTarget=0;pointerEvents=0;fillColor=none;top=0;left=0;bottom=0;right=0;points=[[0,0.5],[1,0.5]];portConstraint=eastwest;" vertex="1" parent="ff2iFZDRP0f89sw57kGQ-54">
          <mxGeometry y="60" width="200" height="30" as="geometry" />
        </mxCell>
        <mxCell id="ff2iFZDRP0f89sw57kGQ-81" value="FK" style="shape=partialRectangle;connectable=0;fillColor=none;top=0;left=0;bottom=0;right=0;fontStyle=0;overflow=hidden;" vertex="1" parent="ff2iFZDRP0f89sw57kGQ-80">
          <mxGeometry width="30.000000000000227" height="30" as="geometry" />
        </mxCell>
        <mxCell id="ff2iFZDRP0f89sw57kGQ-82" value="会員id" style="shape=partialRectangle;connectable=0;fillColor=none;top=0;left=0;bottom=0;right=0;align=left;spacingLeft=6;fontStyle=0;overflow=hidden;" vertex="1" parent="ff2iFZDRP0f89sw57kGQ-80">
          <mxGeometry x="30.000000000000227" width="169.99999999999977" height="30" as="geometry" />
        </mxCell>
        <mxCell id="ff2iFZDRP0f89sw57kGQ-72" value="" style="shape=partialRectangle;collapsible=0;dropTarget=0;pointerEvents=0;fillColor=none;top=0;left=0;bottom=0;right=0;points=[[0,0.5],[1,0.5]];portConstraint=eastwest;" vertex="1" parent="ff2iFZDRP0f89sw57kGQ-54">
          <mxGeometry y="90" width="200" height="20" as="geometry" />
        </mxCell>
        <mxCell id="ff2iFZDRP0f89sw57kGQ-73" value="FK" style="shape=partialRectangle;connectable=0;fillColor=none;top=0;left=0;bottom=0;right=0;fontStyle=0;overflow=hidden;" vertex="1" parent="ff2iFZDRP0f89sw57kGQ-72">
          <mxGeometry width="30.000000000000227" height="20" as="geometry" />
        </mxCell>
        <mxCell id="ff2iFZDRP0f89sw57kGQ-74" value="ジャンルid" style="shape=partialRectangle;connectable=0;fillColor=none;top=0;left=0;bottom=0;right=0;align=left;spacingLeft=6;fontStyle=0;overflow=hidden;" vertex="1" parent="ff2iFZDRP0f89sw57kGQ-72">
          <mxGeometry x="30.000000000000227" width="169.99999999999977" height="20" as="geometry" />
        </mxCell>
        <mxCell id="ff2iFZDRP0f89sw57kGQ-58" value="" style="shape=partialRectangle;collapsible=0;dropTarget=0;pointerEvents=0;fillColor=none;top=0;left=0;bottom=0;right=0;points=[[0,0.5],[1,0.5]];portConstraint=eastwest;" vertex="1" parent="ff2iFZDRP0f89sw57kGQ-54">
          <mxGeometry y="110" width="200" height="30" as="geometry" />
        </mxCell>
        <mxCell id="ff2iFZDRP0f89sw57kGQ-59" value="" style="shape=partialRectangle;connectable=0;fillColor=none;top=0;left=0;bottom=0;right=0;editable=1;overflow=hidden;" vertex="1" parent="ff2iFZDRP0f89sw57kGQ-58">
          <mxGeometry width="30.000000000000227" height="30" as="geometry" />
        </mxCell>
        <mxCell id="ff2iFZDRP0f89sw57kGQ-60" value="作品名" style="shape=partialRectangle;connectable=0;fillColor=none;top=0;left=0;bottom=0;right=0;align=left;spacingLeft=6;overflow=hidden;" vertex="1" parent="ff2iFZDRP0f89sw57kGQ-58">
          <mxGeometry x="30.000000000000227" width="169.99999999999977" height="30" as="geometry" />
        </mxCell>
        <mxCell id="ff2iFZDRP0f89sw57kGQ-61" value="" style="shape=partialRectangle;collapsible=0;dropTarget=0;pointerEvents=0;fillColor=none;top=0;left=0;bottom=0;right=0;points=[[0,0.5],[1,0.5]];portConstraint=eastwest;" vertex="1" parent="ff2iFZDRP0f89sw57kGQ-54">
          <mxGeometry y="140" width="200" height="30" as="geometry" />
        </mxCell>
        <mxCell id="ff2iFZDRP0f89sw57kGQ-62" value="" style="shape=partialRectangle;connectable=0;fillColor=none;top=0;left=0;bottom=0;right=0;editable=1;overflow=hidden;" vertex="1" parent="ff2iFZDRP0f89sw57kGQ-61">
          <mxGeometry width="30.000000000000227" height="30" as="geometry" />
        </mxCell>
        <mxCell id="ff2iFZDRP0f89sw57kGQ-63" value="感想" style="shape=partialRectangle;connectable=0;fillColor=none;top=0;left=0;bottom=0;right=0;align=left;spacingLeft=6;overflow=hidden;" vertex="1" parent="ff2iFZDRP0f89sw57kGQ-61">
          <mxGeometry x="30.000000000000227" width="169.99999999999977" height="30" as="geometry" />
        </mxCell>
        <mxCell id="ff2iFZDRP0f89sw57kGQ-97" value="" style="shape=partialRectangle;collapsible=0;dropTarget=0;pointerEvents=0;fillColor=none;top=0;left=0;bottom=0;right=0;points=[[0,0.5],[1,0.5]];portConstraint=eastwest;" vertex="1" parent="ff2iFZDRP0f89sw57kGQ-54">
          <mxGeometry y="170" width="200" height="30" as="geometry" />
        </mxCell>
        <mxCell id="ff2iFZDRP0f89sw57kGQ-98" value="" style="shape=partialRectangle;connectable=0;fillColor=none;top=0;left=0;bottom=0;right=0;editable=1;overflow=hidden;" vertex="1" parent="ff2iFZDRP0f89sw57kGQ-97">
          <mxGeometry width="30.000000000000227" height="30" as="geometry" />
        </mxCell>
        <mxCell id="ff2iFZDRP0f89sw57kGQ-99" value="作成日時" style="shape=partialRectangle;connectable=0;fillColor=none;top=0;left=0;bottom=0;right=0;align=left;spacingLeft=6;overflow=hidden;" vertex="1" parent="ff2iFZDRP0f89sw57kGQ-97">
          <mxGeometry x="30.000000000000227" width="169.99999999999977" height="30" as="geometry" />
        </mxCell>
        <mxCell id="ff2iFZDRP0f89sw57kGQ-64" value="" style="shape=partialRectangle;collapsible=0;dropTarget=0;pointerEvents=0;fillColor=none;top=0;left=0;bottom=0;right=0;points=[[0,0.5],[1,0.5]];portConstraint=eastwest;" vertex="1" parent="ff2iFZDRP0f89sw57kGQ-54">
          <mxGeometry y="200" width="200" height="30" as="geometry" />
        </mxCell>
        <mxCell id="ff2iFZDRP0f89sw57kGQ-65" value="" style="shape=partialRectangle;connectable=0;fillColor=none;top=0;left=0;bottom=0;right=0;editable=1;overflow=hidden;" vertex="1" parent="ff2iFZDRP0f89sw57kGQ-64">
          <mxGeometry width="30.000000000000227" height="30" as="geometry" />
        </mxCell>
        <mxCell id="ff2iFZDRP0f89sw57kGQ-66" value="更新日時" style="shape=partialRectangle;connectable=0;fillColor=none;top=0;left=0;bottom=0;right=0;align=left;spacingLeft=6;overflow=hidden;" vertex="1" parent="ff2iFZDRP0f89sw57kGQ-64">
          <mxGeometry x="30.000000000000227" width="169.99999999999977" height="30" as="geometry" />
        </mxCell>
        <mxCell id="ff2iFZDRP0f89sw57kGQ-83" value="ジャンル（Genres）" style="shape=table;startSize=30;container=1;collapsible=1;childLayout=tableLayout;fixedRows=1;rowLines=0;fontStyle=1;align=center;resizeLast=1;" vertex="1" parent="WIyWlLk6GJQsqaUBKTNV-1">
          <mxGeometry x="760" y="40" width="200" height="160" as="geometry" />
        </mxCell>
        <mxCell id="ff2iFZDRP0f89sw57kGQ-84" value="" style="shape=partialRectangle;collapsible=0;dropTarget=0;pointerEvents=0;fillColor=none;top=0;left=0;bottom=1;right=0;points=[[0,0.5],[1,0.5]];portConstraint=eastwest;" vertex="1" parent="ff2iFZDRP0f89sw57kGQ-83">
          <mxGeometry y="30" width="200" height="30" as="geometry" />
        </mxCell>
        <mxCell id="ff2iFZDRP0f89sw57kGQ-85" value="PK" style="shape=partialRectangle;connectable=0;fillColor=none;top=0;left=0;bottom=0;right=0;fontStyle=1;overflow=hidden;" vertex="1" parent="ff2iFZDRP0f89sw57kGQ-84">
          <mxGeometry width="30" height="30" as="geometry" />
        </mxCell>
        <mxCell id="ff2iFZDRP0f89sw57kGQ-86" value="ジャンルid" style="shape=partialRectangle;connectable=0;fillColor=none;top=0;left=0;bottom=0;right=0;align=left;spacingLeft=6;fontStyle=5;overflow=hidden;" vertex="1" parent="ff2iFZDRP0f89sw57kGQ-84">
          <mxGeometry x="30" width="170" height="30" as="geometry" />
        </mxCell>
        <mxCell id="ff2iFZDRP0f89sw57kGQ-87" value="" style="shape=partialRectangle;collapsible=0;dropTarget=0;pointerEvents=0;fillColor=none;top=0;left=0;bottom=0;right=0;points=[[0,0.5],[1,0.5]];portConstraint=eastwest;" vertex="1" parent="ff2iFZDRP0f89sw57kGQ-83">
          <mxGeometry y="60" width="200" height="30" as="geometry" />
        </mxCell>
        <mxCell id="ff2iFZDRP0f89sw57kGQ-88" value="" style="shape=partialRectangle;connectable=0;fillColor=none;top=0;left=0;bottom=0;right=0;editable=1;overflow=hidden;" vertex="1" parent="ff2iFZDRP0f89sw57kGQ-87">
          <mxGeometry width="30" height="30" as="geometry" />
        </mxCell>
        <mxCell id="ff2iFZDRP0f89sw57kGQ-89" value="ジャンル" style="shape=partialRectangle;connectable=0;fillColor=none;top=0;left=0;bottom=0;right=0;align=left;spacingLeft=6;overflow=hidden;" vertex="1" parent="ff2iFZDRP0f89sw57kGQ-87">
          <mxGeometry x="30" width="170" height="30" as="geometry" />
        </mxCell>
        <mxCell id="ff2iFZDRP0f89sw57kGQ-90" value="" style="shape=partialRectangle;collapsible=0;dropTarget=0;pointerEvents=0;fillColor=none;top=0;left=0;bottom=0;right=0;points=[[0,0.5],[1,0.5]];portConstraint=eastwest;" vertex="1" parent="ff2iFZDRP0f89sw57kGQ-83">
          <mxGeometry y="90" width="200" height="30" as="geometry" />
        </mxCell>
        <mxCell id="ff2iFZDRP0f89sw57kGQ-91" value="" style="shape=partialRectangle;connectable=0;fillColor=none;top=0;left=0;bottom=0;right=0;editable=1;overflow=hidden;" vertex="1" parent="ff2iFZDRP0f89sw57kGQ-90">
          <mxGeometry width="30" height="30" as="geometry" />
        </mxCell>
        <mxCell id="ff2iFZDRP0f89sw57kGQ-92" value="作成日時" style="shape=partialRectangle;connectable=0;fillColor=none;top=0;left=0;bottom=0;right=0;align=left;spacingLeft=6;overflow=hidden;" vertex="1" parent="ff2iFZDRP0f89sw57kGQ-90">
          <mxGeometry x="30" width="170" height="30" as="geometry" />
        </mxCell>
        <mxCell id="ff2iFZDRP0f89sw57kGQ-93" value="" style="shape=partialRectangle;collapsible=0;dropTarget=0;pointerEvents=0;fillColor=none;top=0;left=0;bottom=0;right=0;points=[[0,0.5],[1,0.5]];portConstraint=eastwest;" vertex="1" parent="ff2iFZDRP0f89sw57kGQ-83">
          <mxGeometry y="120" width="200" height="30" as="geometry" />
        </mxCell>
        <mxCell id="ff2iFZDRP0f89sw57kGQ-94" value="" style="shape=partialRectangle;connectable=0;fillColor=none;top=0;left=0;bottom=0;right=0;editable=1;overflow=hidden;" vertex="1" parent="ff2iFZDRP0f89sw57kGQ-93">
          <mxGeometry width="30" height="30" as="geometry" />
        </mxCell>
        <mxCell id="ff2iFZDRP0f89sw57kGQ-95" value="更新日時" style="shape=partialRectangle;connectable=0;fillColor=none;top=0;left=0;bottom=0;right=0;align=left;spacingLeft=6;overflow=hidden;" vertex="1" parent="ff2iFZDRP0f89sw57kGQ-93">
          <mxGeometry x="30" width="170" height="30" as="geometry" />
        </mxCell>
        <mxCell id="ff2iFZDRP0f89sw57kGQ-100" value="コメント（Comments）" style="shape=table;startSize=30;container=1;collapsible=1;childLayout=tableLayout;fixedRows=1;rowLines=0;fontStyle=1;align=center;resizeLast=1;" vertex="1" parent="WIyWlLk6GJQsqaUBKTNV-1">
          <mxGeometry x="760" y="280" width="200" height="240" as="geometry" />
        </mxCell>
        <mxCell id="ff2iFZDRP0f89sw57kGQ-101" value="" style="shape=partialRectangle;collapsible=0;dropTarget=0;pointerEvents=0;fillColor=none;top=0;left=0;bottom=1;right=0;points=[[0,0.5],[1,0.5]];portConstraint=eastwest;" vertex="1" parent="ff2iFZDRP0f89sw57kGQ-100">
          <mxGeometry y="30" width="200" height="30" as="geometry" />
        </mxCell>
        <mxCell id="ff2iFZDRP0f89sw57kGQ-102" value="PK" style="shape=partialRectangle;connectable=0;fillColor=none;top=0;left=0;bottom=0;right=0;fontStyle=1;overflow=hidden;" vertex="1" parent="ff2iFZDRP0f89sw57kGQ-101">
          <mxGeometry width="30" height="30" as="geometry" />
        </mxCell>
        <mxCell id="ff2iFZDRP0f89sw57kGQ-103" value="コメントid" style="shape=partialRectangle;connectable=0;fillColor=none;top=0;left=0;bottom=0;right=0;align=left;spacingLeft=6;fontStyle=5;overflow=hidden;" vertex="1" parent="ff2iFZDRP0f89sw57kGQ-101">
          <mxGeometry x="30" width="170" height="30" as="geometry" />
        </mxCell>
        <mxCell id="ff2iFZDRP0f89sw57kGQ-114" value="" style="shape=partialRectangle;collapsible=0;dropTarget=0;pointerEvents=0;fillColor=none;top=0;left=0;bottom=0;right=0;points=[[0,0.5],[1,0.5]];portConstraint=eastwest;" vertex="1" parent="ff2iFZDRP0f89sw57kGQ-100">
          <mxGeometry y="60" width="200" height="30" as="geometry" />
        </mxCell>
        <mxCell id="ff2iFZDRP0f89sw57kGQ-115" value="FK" style="shape=partialRectangle;connectable=0;fillColor=none;top=0;left=0;bottom=0;right=0;fontStyle=0;overflow=hidden;" vertex="1" parent="ff2iFZDRP0f89sw57kGQ-114">
          <mxGeometry width="30" height="30" as="geometry" />
        </mxCell>
        <mxCell id="ff2iFZDRP0f89sw57kGQ-116" value="動画id" style="shape=partialRectangle;connectable=0;fillColor=none;top=0;left=0;bottom=0;right=0;align=left;spacingLeft=6;fontStyle=0;overflow=hidden;" vertex="1" parent="ff2iFZDRP0f89sw57kGQ-114">
          <mxGeometry x="30" width="170" height="30" as="geometry" />
        </mxCell>
        <mxCell id="ff2iFZDRP0f89sw57kGQ-122" value="" style="shape=partialRectangle;collapsible=0;dropTarget=0;pointerEvents=0;fillColor=none;top=0;left=0;bottom=1;right=0;points=[[0,0.5],[1,0.5]];portConstraint=eastwest;" vertex="1" parent="ff2iFZDRP0f89sw57kGQ-100">
          <mxGeometry y="90" width="200" height="30" as="geometry" />
        </mxCell>
        <mxCell id="ff2iFZDRP0f89sw57kGQ-123" value="FK" style="shape=partialRectangle;connectable=0;fillColor=none;top=0;left=0;bottom=0;right=0;fontStyle=0;overflow=hidden;" vertex="1" parent="ff2iFZDRP0f89sw57kGQ-122">
          <mxGeometry width="30" height="30" as="geometry" />
        </mxCell>
        <mxCell id="ff2iFZDRP0f89sw57kGQ-124" value="会員id" style="shape=partialRectangle;connectable=0;fillColor=none;top=0;left=0;bottom=0;right=0;align=left;spacingLeft=6;fontStyle=0;overflow=hidden;" vertex="1" parent="ff2iFZDRP0f89sw57kGQ-122">
          <mxGeometry x="30" width="170" height="30" as="geometry" />
        </mxCell>
        <mxCell id="ff2iFZDRP0f89sw57kGQ-104" value="" style="shape=partialRectangle;collapsible=0;dropTarget=0;pointerEvents=0;fillColor=none;top=0;left=0;bottom=0;right=0;points=[[0,0.5],[1,0.5]];portConstraint=eastwest;" vertex="1" parent="ff2iFZDRP0f89sw57kGQ-100">
          <mxGeometry y="120" width="200" height="30" as="geometry" />
        </mxCell>
        <mxCell id="ff2iFZDRP0f89sw57kGQ-105" value="" style="shape=partialRectangle;connectable=0;fillColor=none;top=0;left=0;bottom=0;right=0;editable=1;overflow=hidden;" vertex="1" parent="ff2iFZDRP0f89sw57kGQ-104">
          <mxGeometry width="30" height="30" as="geometry" />
        </mxCell>
        <mxCell id="ff2iFZDRP0f89sw57kGQ-106" value="コメント" style="shape=partialRectangle;connectable=0;fillColor=none;top=0;left=0;bottom=0;right=0;align=left;spacingLeft=6;overflow=hidden;" vertex="1" parent="ff2iFZDRP0f89sw57kGQ-104">
          <mxGeometry x="30" width="170" height="30" as="geometry" />
        </mxCell>
        <mxCell id="ff2iFZDRP0f89sw57kGQ-107" value="" style="shape=partialRectangle;collapsible=0;dropTarget=0;pointerEvents=0;fillColor=none;top=0;left=0;bottom=0;right=0;points=[[0,0.5],[1,0.5]];portConstraint=eastwest;" vertex="1" parent="ff2iFZDRP0f89sw57kGQ-100">
          <mxGeometry y="150" width="200" height="30" as="geometry" />
        </mxCell>
        <mxCell id="ff2iFZDRP0f89sw57kGQ-108" value="" style="shape=partialRectangle;connectable=0;fillColor=none;top=0;left=0;bottom=0;right=0;editable=1;overflow=hidden;" vertex="1" parent="ff2iFZDRP0f89sw57kGQ-107">
          <mxGeometry width="30" height="30" as="geometry" />
        </mxCell>
        <mxCell id="ff2iFZDRP0f89sw57kGQ-109" value="作成日時" style="shape=partialRectangle;connectable=0;fillColor=none;top=0;left=0;bottom=0;right=0;align=left;spacingLeft=6;overflow=hidden;" vertex="1" parent="ff2iFZDRP0f89sw57kGQ-107">
          <mxGeometry x="30" width="170" height="30" as="geometry" />
        </mxCell>
        <mxCell id="ff2iFZDRP0f89sw57kGQ-110" value="" style="shape=partialRectangle;collapsible=0;dropTarget=0;pointerEvents=0;fillColor=none;top=0;left=0;bottom=0;right=0;points=[[0,0.5],[1,0.5]];portConstraint=eastwest;" vertex="1" parent="ff2iFZDRP0f89sw57kGQ-100">
          <mxGeometry y="180" width="200" height="40" as="geometry" />
        </mxCell>
        <mxCell id="ff2iFZDRP0f89sw57kGQ-111" value="" style="shape=partialRectangle;connectable=0;fillColor=none;top=0;left=0;bottom=0;right=0;editable=1;overflow=hidden;" vertex="1" parent="ff2iFZDRP0f89sw57kGQ-110">
          <mxGeometry width="30" height="40" as="geometry" />
        </mxCell>
        <mxCell id="ff2iFZDRP0f89sw57kGQ-112" value="更新日時" style="shape=partialRectangle;connectable=0;fillColor=none;top=0;left=0;bottom=0;right=0;align=left;spacingLeft=6;overflow=hidden;" vertex="1" parent="ff2iFZDRP0f89sw57kGQ-110">
          <mxGeometry x="30" width="170" height="40" as="geometry" />
        </mxCell>
        <mxCell id="ff2iFZDRP0f89sw57kGQ-125" value="いいね（Favorites）" style="shape=table;startSize=30;container=1;collapsible=1;childLayout=tableLayout;fixedRows=1;rowLines=0;fontStyle=1;align=center;resizeLast=1;" vertex="1" parent="WIyWlLk6GJQsqaUBKTNV-1">
          <mxGeometry x="400" y="480" width="200" height="240" as="geometry" />
        </mxCell>
        <mxCell id="ff2iFZDRP0f89sw57kGQ-126" value="" style="shape=partialRectangle;collapsible=0;dropTarget=0;pointerEvents=0;fillColor=none;top=0;left=0;bottom=1;right=0;points=[[0,0.5],[1,0.5]];portConstraint=eastwest;" vertex="1" parent="ff2iFZDRP0f89sw57kGQ-125">
          <mxGeometry y="30" width="200" height="30" as="geometry" />
        </mxCell>
        <mxCell id="ff2iFZDRP0f89sw57kGQ-127" value="PK" style="shape=partialRectangle;connectable=0;fillColor=none;top=0;left=0;bottom=0;right=0;fontStyle=1;overflow=hidden;" vertex="1" parent="ff2iFZDRP0f89sw57kGQ-126">
          <mxGeometry width="30" height="30" as="geometry" />
        </mxCell>
        <mxCell id="ff2iFZDRP0f89sw57kGQ-128" value="いいねid" style="shape=partialRectangle;connectable=0;fillColor=none;top=0;left=0;bottom=0;right=0;align=left;spacingLeft=6;fontStyle=5;overflow=hidden;" vertex="1" parent="ff2iFZDRP0f89sw57kGQ-126">
          <mxGeometry x="30" width="170" height="30" as="geometry" />
        </mxCell>
        <mxCell id="ff2iFZDRP0f89sw57kGQ-159" value="" style="shape=partialRectangle;collapsible=0;dropTarget=0;pointerEvents=0;fillColor=none;top=0;left=0;bottom=0;right=0;points=[[0,0.5],[1,0.5]];portConstraint=eastwest;" vertex="1" parent="ff2iFZDRP0f89sw57kGQ-125">
          <mxGeometry y="60" width="200" height="30" as="geometry" />
        </mxCell>
        <mxCell id="ff2iFZDRP0f89sw57kGQ-160" value="FK" style="shape=partialRectangle;connectable=0;fillColor=none;top=0;left=0;bottom=0;right=0;fontStyle=0;overflow=hidden;" vertex="1" parent="ff2iFZDRP0f89sw57kGQ-159">
          <mxGeometry width="30" height="30" as="geometry" />
        </mxCell>
        <mxCell id="ff2iFZDRP0f89sw57kGQ-161" value="動画id" style="shape=partialRectangle;connectable=0;fillColor=none;top=0;left=0;bottom=0;right=0;align=left;spacingLeft=6;fontStyle=0;overflow=hidden;" vertex="1" parent="ff2iFZDRP0f89sw57kGQ-159">
          <mxGeometry x="30" width="170" height="30" as="geometry" />
        </mxCell>
        <mxCell id="ff2iFZDRP0f89sw57kGQ-155" value="" style="shape=partialRectangle;collapsible=0;dropTarget=0;pointerEvents=0;fillColor=none;top=0;left=0;bottom=1;right=0;points=[[0,0.5],[1,0.5]];portConstraint=eastwest;" vertex="1" parent="ff2iFZDRP0f89sw57kGQ-125">
          <mxGeometry y="90" width="200" height="30" as="geometry" />
        </mxCell>
        <mxCell id="ff2iFZDRP0f89sw57kGQ-156" value="FK" style="shape=partialRectangle;connectable=0;fillColor=none;top=0;left=0;bottom=0;right=0;fontStyle=0;overflow=hidden;" vertex="1" parent="ff2iFZDRP0f89sw57kGQ-155">
          <mxGeometry width="30" height="30" as="geometry" />
        </mxCell>
        <mxCell id="ff2iFZDRP0f89sw57kGQ-157" value="会員id" style="shape=partialRectangle;connectable=0;fillColor=none;top=0;left=0;bottom=0;right=0;align=left;spacingLeft=6;fontStyle=0;overflow=hidden;" vertex="1" parent="ff2iFZDRP0f89sw57kGQ-155">
          <mxGeometry x="30" width="170" height="30" as="geometry" />
        </mxCell>
        <mxCell id="ff2iFZDRP0f89sw57kGQ-151" value="" style="shape=partialRectangle;collapsible=0;dropTarget=0;pointerEvents=0;fillColor=none;top=0;left=0;bottom=0;right=0;points=[[0,0.5],[1,0.5]];portConstraint=eastwest;" vertex="1" parent="ff2iFZDRP0f89sw57kGQ-125">
          <mxGeometry y="120" width="200" height="30" as="geometry" />
        </mxCell>
        <mxCell id="ff2iFZDRP0f89sw57kGQ-152" value="" style="shape=partialRectangle;connectable=0;fillColor=none;top=0;left=0;bottom=0;right=0;fontStyle=0;overflow=hidden;" vertex="1" parent="ff2iFZDRP0f89sw57kGQ-151">
          <mxGeometry width="30" height="30" as="geometry" />
        </mxCell>
        <mxCell id="ff2iFZDRP0f89sw57kGQ-153" value="" style="shape=partialRectangle;connectable=0;fillColor=none;top=0;left=0;bottom=0;right=0;align=left;spacingLeft=6;fontStyle=0;overflow=hidden;" vertex="1" parent="ff2iFZDRP0f89sw57kGQ-151">
          <mxGeometry x="30" width="170" height="30" as="geometry" />
        </mxCell>
        <mxCell id="ff2iFZDRP0f89sw57kGQ-163" value="" style="shape=partialRectangle;collapsible=0;dropTarget=0;pointerEvents=0;fillColor=none;top=0;left=0;bottom=0;right=0;points=[[0,0.5],[1,0.5]];portConstraint=eastwest;" vertex="1" parent="ff2iFZDRP0f89sw57kGQ-125">
          <mxGeometry y="150" width="200" height="30" as="geometry" />
        </mxCell>
        <mxCell id="ff2iFZDRP0f89sw57kGQ-164" value="" style="shape=partialRectangle;connectable=0;fillColor=none;top=0;left=0;bottom=0;right=0;editable=1;overflow=hidden;" vertex="1" parent="ff2iFZDRP0f89sw57kGQ-163">
          <mxGeometry width="30" height="30" as="geometry" />
        </mxCell>
        <mxCell id="ff2iFZDRP0f89sw57kGQ-165" value="作成日時" style="shape=partialRectangle;connectable=0;fillColor=none;top=0;left=0;bottom=0;right=0;align=left;spacingLeft=6;overflow=hidden;" vertex="1" parent="ff2iFZDRP0f89sw57kGQ-163">
          <mxGeometry x="30" width="170" height="30" as="geometry" />
        </mxCell>
        <mxCell id="ff2iFZDRP0f89sw57kGQ-129" value="" style="shape=partialRectangle;collapsible=0;dropTarget=0;pointerEvents=0;fillColor=none;top=0;left=0;bottom=0;right=0;points=[[0,0.5],[1,0.5]];portConstraint=eastwest;" vertex="1" parent="ff2iFZDRP0f89sw57kGQ-125">
          <mxGeometry y="180" width="200" height="30" as="geometry" />
        </mxCell>
        <mxCell id="ff2iFZDRP0f89sw57kGQ-130" value="" style="shape=partialRectangle;connectable=0;fillColor=none;top=0;left=0;bottom=0;right=0;editable=1;overflow=hidden;" vertex="1" parent="ff2iFZDRP0f89sw57kGQ-129">
          <mxGeometry width="30" height="30" as="geometry" />
        </mxCell>
        <mxCell id="ff2iFZDRP0f89sw57kGQ-131" value="更新日時" style="shape=partialRectangle;connectable=0;fillColor=none;top=0;left=0;bottom=0;right=0;align=left;spacingLeft=6;overflow=hidden;" vertex="1" parent="ff2iFZDRP0f89sw57kGQ-129">
          <mxGeometry x="30" width="170" height="30" as="geometry" />
        </mxCell>
        <mxCell id="ff2iFZDRP0f89sw57kGQ-132" value="" style="shape=partialRectangle;collapsible=0;dropTarget=0;pointerEvents=0;fillColor=none;top=0;left=0;bottom=0;right=0;points=[[0,0.5],[1,0.5]];portConstraint=eastwest;" vertex="1" parent="ff2iFZDRP0f89sw57kGQ-125">
          <mxGeometry y="210" width="200" height="30" as="geometry" />
        </mxCell>
        <mxCell id="ff2iFZDRP0f89sw57kGQ-133" value="" style="shape=partialRectangle;connectable=0;fillColor=none;top=0;left=0;bottom=0;right=0;editable=1;overflow=hidden;" vertex="1" parent="ff2iFZDRP0f89sw57kGQ-132">
          <mxGeometry width="30" height="30" as="geometry" />
        </mxCell>
        <mxCell id="ff2iFZDRP0f89sw57kGQ-134" value="" style="shape=partialRectangle;connectable=0;fillColor=none;top=0;left=0;bottom=0;right=0;align=left;spacingLeft=6;overflow=hidden;" vertex="1" parent="ff2iFZDRP0f89sw57kGQ-132">
          <mxGeometry x="30" width="170" height="30" as="geometry" />
        </mxCell>
        <mxCell id="ff2iFZDRP0f89sw57kGQ-166" value="" style="shape=table;startSize=0;container=1;collapsible=1;childLayout=tableLayout;fixedRows=1;rowLines=0;fontStyle=0;align=center;resizeLast=1;strokeColor=none;fillColor=none;" vertex="1" parent="WIyWlLk6GJQsqaUBKTNV-1">
          <mxGeometry x="400" y="600" width="200" height="30" as="geometry" />
        </mxCell>
        <mxCell id="ff2iFZDRP0f89sw57kGQ-167" value="" style="shape=partialRectangle;collapsible=0;dropTarget=0;pointerEvents=0;fillColor=none;top=0;left=0;bottom=0;right=0;points=[[0,0.5],[1,0.5]];portConstraint=eastwest;" vertex="1" parent="ff2iFZDRP0f89sw57kGQ-166">
          <mxGeometry width="200" height="30" as="geometry" />
        </mxCell>
        <mxCell id="ff2iFZDRP0f89sw57kGQ-168" value="" style="shape=partialRectangle;connectable=0;fillColor=none;top=0;left=0;bottom=0;right=0;editable=1;overflow=hidden;" vertex="1" parent="ff2iFZDRP0f89sw57kGQ-167">
          <mxGeometry width="30" height="30" as="geometry" />
        </mxCell>
        <mxCell id="ff2iFZDRP0f89sw57kGQ-169" value="いいね" style="shape=partialRectangle;connectable=0;fillColor=none;top=0;left=0;bottom=0;right=0;align=left;spacingLeft=6;overflow=hidden;" vertex="1" parent="ff2iFZDRP0f89sw57kGQ-167">
          <mxGeometry x="30" width="170" height="30" as="geometry" />
        </mxCell>
        <mxCell id="ff2iFZDRP0f89sw57kGQ-170" value="" style="line;strokeWidth=1;rotatable=0;dashed=0;labelPosition=right;align=left;verticalAlign=middle;spacingTop=0;spacingLeft=6;points=[];portConstraint=eastwest;" vertex="1" parent="WIyWlLk6GJQsqaUBKTNV-1">
          <mxGeometry x="400" y="150" width="200" height="10" as="geometry" />
        </mxCell>
        <mxCell id="ff2iFZDRP0f89sw57kGQ-172" value="" style="edgeStyle=entityRelationEdgeStyle;fontSize=12;html=1;endArrow=ERoneToMany;startArrow=ERmandOne;rounded=0;exitX=1;exitY=0.5;exitDx=0;exitDy=0;entryX=0;entryY=0.5;entryDx=0;entryDy=0;" edge="1" parent="WIyWlLk6GJQsqaUBKTNV-1" source="ff2iFZDRP0f89sw57kGQ-22" target="ff2iFZDRP0f89sw57kGQ-80">
          <mxGeometry width="100" height="100" relative="1" as="geometry">
            <mxPoint x="250" y="90" as="sourcePoint" />
            <mxPoint x="710" y="220" as="targetPoint" />
          </mxGeometry>
        </mxCell>
        <mxCell id="ff2iFZDRP0f89sw57kGQ-173" value="" style="edgeStyle=entityRelationEdgeStyle;fontSize=12;html=1;endArrow=ERoneToMany;startArrow=ERmandOne;rounded=0;exitX=1;exitY=0.5;exitDx=0;exitDy=0;entryX=0;entryY=0.5;entryDx=0;entryDy=0;" edge="1" parent="WIyWlLk6GJQsqaUBKTNV-1" source="ff2iFZDRP0f89sw57kGQ-72" target="ff2iFZDRP0f89sw57kGQ-84">
          <mxGeometry width="100" height="100" relative="1" as="geometry">
            <mxPoint x="610" y="320" as="sourcePoint" />
            <mxPoint x="710" y="220" as="targetPoint" />
          </mxGeometry>
        </mxCell>
        <mxCell id="ff2iFZDRP0f89sw57kGQ-174" value="" style="edgeStyle=entityRelationEdgeStyle;fontSize=12;html=1;endArrow=ERoneToMany;startArrow=ERmandOne;exitX=1;exitY=0.5;exitDx=0;exitDy=0;rounded=0;entryX=0;entryY=0.5;entryDx=0;entryDy=0;" edge="1" parent="WIyWlLk6GJQsqaUBKTNV-1" source="ff2iFZDRP0f89sw57kGQ-55" target="ff2iFZDRP0f89sw57kGQ-114">
          <mxGeometry width="100" height="100" relative="1" as="geometry">
            <mxPoint x="610" y="320" as="sourcePoint" />
            <mxPoint x="750" y="350" as="targetPoint" />
          </mxGeometry>
        </mxCell>
        <mxCell id="ff2iFZDRP0f89sw57kGQ-176" value="" style="edgeStyle=elbowEdgeStyle;fontSize=12;html=1;endArrow=ERoneToMany;startArrow=ERmandOne;rounded=0;exitX=1;exitY=0.5;exitDx=0;exitDy=0;entryX=0;entryY=0.5;entryDx=0;entryDy=0;" edge="1" parent="WIyWlLk6GJQsqaUBKTNV-1" source="ff2iFZDRP0f89sw57kGQ-25" target="ff2iFZDRP0f89sw57kGQ-122">
          <mxGeometry width="100" height="100" relative="1" as="geometry">
            <mxPoint x="610" y="320" as="sourcePoint" />
            <mxPoint x="750" y="380" as="targetPoint" />
            <Array as="points">
              <mxPoint x="340" y="310" />
              <mxPoint x="320" y="260" />
            </Array>
          </mxGeometry>
        </mxCell>
        <mxCell id="ff2iFZDRP0f89sw57kGQ-177" value="" style="edgeStyle=elbowEdgeStyle;fontSize=12;html=1;endArrow=ERoneToMany;startArrow=ERmandOne;exitX=1.016;exitY=0.014;exitDx=0;exitDy=0;exitPerimeter=0;rounded=0;" edge="1" parent="WIyWlLk6GJQsqaUBKTNV-1" source="ff2iFZDRP0f89sw57kGQ-80">
          <mxGeometry width="100" height="100" relative="1" as="geometry">
            <mxPoint x="610" y="330" as="sourcePoint" />
            <mxPoint x="603" y="570" as="targetPoint" />
            <Array as="points">
              <mxPoint x="680" y="560" />
              <mxPoint x="680" y="550" />
              <mxPoint x="680" y="500" />
              <mxPoint x="680" y="540" />
              <mxPoint x="680" y="550" />
              <mxPoint x="680" y="330" />
            </Array>
          </mxGeometry>
        </mxCell>
        <mxCell id="ff2iFZDRP0f89sw57kGQ-178" value="" style="edgeStyle=entityRelationEdgeStyle;fontSize=12;html=1;endArrow=ERoneToMany;startArrow=ERmandOne;exitX=0.995;exitY=0.205;exitDx=0;exitDy=0;exitPerimeter=0;rounded=0;entryX=0;entryY=0.5;entryDx=0;entryDy=0;" edge="1" parent="WIyWlLk6GJQsqaUBKTNV-1" source="ff2iFZDRP0f89sw57kGQ-28" target="ff2iFZDRP0f89sw57kGQ-155">
          <mxGeometry width="100" height="100" relative="1" as="geometry">
            <mxPoint x="610" y="330" as="sourcePoint" />
            <mxPoint x="390" y="580" as="targetPoint" />
          </mxGeometry>
        </mxCell>
      </root>
    </mxGraphModel>
  </diagram>
</mxfile>
